<?xml version="1.0" encoding="UTF-8" standalone="no"?>
<!-- Created with Inkscape (http://www.inkscape.org/) -->

<svg
   width="68.262497mm"
   height="68.262497mm"
   viewBox="0 0 68.262497 68.262497"
   version="1.1"
   id="svg5"
   xml:space="preserve"
   xmlns:inkscape="http://www.inkscape.org/namespaces/inkscape"
   xmlns:sodipodi="http://sodipodi.sourceforge.net/DTD/sodipodi-0.dtd"
   xmlns="http://www.w3.org/2000/svg"
   xmlns:svg="http://www.w3.org/2000/svg"><sodipodi:namedview
     id="namedview7"
     pagecolor="#ffffff"
     bordercolor="#999999"
     borderopacity="1"
     inkscape:showpageshadow="0"
     inkscape:pageopacity="0"
     inkscape:pagecheckerboard="0"
     inkscape:deskcolor="#d1d1d1"
     inkscape:document-units="mm"
     showgrid="false" /><defs
     id="defs2" /><g
     inkscape:label="Capa 1"
     inkscape:groupmode="layer"
     id="layer1"
     transform="translate(-75.30739,-79.36067)"><g
       data-paper-data="{&quot;isGlobalGroup&quot;:true,&quot;bounds&quot;:{&quot;x&quot;:146.00000000000003,&quot;y&quot;:106.00000000000003,&quot;width&quot;:258,&quot;height&quot;:258}}"
       id="g250"
       style="font-family:none;mix-blend-mode:normal;fill:#ffffff;stroke:none;stroke-width:1;stroke-linecap:butt;stroke-linejoin:miter;stroke-miterlimit:10;stroke-dasharray:none;stroke-dashoffset:0"
       transform="matrix(0.26458333,0,0,0.26458333,36.67822,51.314836)"><g
         data-paper-data="{&quot;fillRule&quot;:&quot;nonzero&quot;,&quot;fillRuleOriginal&quot;:&quot;nonzero&quot;,&quot;isIcon&quot;:true,&quot;iconStyle&quot;:&quot;standalone&quot;,&quot;selectedEffects&quot;:{&quot;container&quot;:&quot;circle_simple_filled&quot;,&quot;transformation&quot;:&quot;&quot;,&quot;pattern&quot;:&quot;&quot;},&quot;bounds&quot;:{&quot;x&quot;:196.3827756007484,&quot;y&quot;:156.3827756007484,&quot;width&quot;:157.23366263019017,&quot;height&quot;:157.23366263019005},&quot;widthRatioIconToContainer&quot;:0.7725825431785631,&quot;heightRatioIconToContainer&quot;:0.7875804366844503,&quot;relativeBoundsIconToContainer&quot;:{&quot;top&quot;:0.0004935117499825869,&quot;left&quot;:0.04816146794413252},&quot;iconType&quot;:&quot;icon&quot;,&quot;rawIconId&quot;:&quot;79506cb5-cd86-4efc-aae7-8bef28d33a76&quot;,&quot;blockLetter&quot;:&quot;O&quot;,&quot;suitableAsStandaloneIcon&quot;:true}"
         fill-rule="nonzero"
         id="g184"><path
           d="m 196.38278,234.99961 c 0,-43.41887 35.19796,-78.61683 78.61683,-78.61683 43.41887,0 78.61683,35.19796 78.61683,78.61683 0,43.41887 -35.19796,78.61683 -78.61683,78.61683 -43.41887,0 -78.61683,-35.19796 -78.61683,-78.61683 z m 73.76368,13.31962 -0.0605,-26.48406 h 11.66992 c 3.62795,0 6.71172,1.26978 9.31175,3.86982 2.60003,2.60003 3.86982,5.68379 3.86982,9.37221 0,3.56749 -1.26978,6.65125 -3.80935,9.25128 -2.53957,2.60003 -5.56286,3.93028 -9.13035,3.99075 z m -23.64215,43.77731 c -5.38146,0 -10.03734,-1.93491 -13.84669,-5.80473 -3.80935,-3.80935 -5.74426,-8.46522 -5.74426,-13.90716 v -74.43351 c 0,-5.38146 1.87444,-10.03734 5.68379,-13.84669 3.74889,-3.80935 8.28383,-5.74426 13.60483,-5.80473 5.20007,0.0605 9.61408,1.93491 13.24203,5.68379 3.68842,3.68842 5.5024,8.1629 5.5024,13.42343 0.12093,25.09334 0.1814,50.42855 0.1814,76.06609 0,5.92566 2.4791,10.70246 7.43731,14.39088 3.80935,2.8419 7.37684,4.23261 10.70246,4.23261 z m -0.5442,-118.93641 c -6.65125,0 -12.33504,2.35817 -17.05138,7.13498 -4.71634,4.71634 -7.07451,10.40013 -7.07451,17.11185 v 75.34051 c 0,0.42326 0.0605,0.90699 0.1814,1.33025 0.30233,6.34892 2.8419,11.79085 7.49777,16.20486 4.65587,4.47448 10.15827,6.71172 16.56766,6.71172 h 36.5214 c 16.74905,-0.24186 31.07947,-6.34892 42.87032,-18.32117 11.91178,-12.09318 17.83744,-26.605 17.83744,-43.59591 0,-17.05138 -6.04659,-31.62366 -18.0793,-43.7773 -12.03271,-12.09318 -26.48406,-18.13976 -43.47497,-18.13976 z"
           data-paper-data="{&quot;isPathIcon&quot;:true}"
           id="path182" /></g><g
         data-paper-data="{&quot;isPrimaryText&quot;:true}"
         fill-rule="nonzero"
         id="g196"><path
           d="m 229.39913,132.3358 6.29864,17.74033 c 2.33809,-0.37265 4.41142,-0.80379 6.90319,-1.68848 6.09401,-2.16366 8.07992,-7.56554 6.1759,-12.92827 -2.07711,-5.85025 -8.00225,-7.1624 -13.60874,-5.17184 z m 3.25499,1.43671 3.33139,-1.1828 c 4.06267,-1.44244 8.72252,-0.6875 10.29958,3.75435 1.44244,4.06267 -0.11383,8.18356 -4.50151,9.7414 -1.30005,0.46158 -2.90942,0.91098 -4.32134,1.22929 z"
           data-paper-data="{&quot;glyphName&quot;:&quot;D&quot;,&quot;glyphIndex&quot;:0,&quot;firstGlyphOfWord&quot;:true,&quot;word&quot;:1}"
           id="path186" /><path
           d="m 257.32525,131.44219 -1.30474,-7.18265 -2.31881,0.42121 1.30474,7.18265 z"
           data-paper-data="{&quot;glyphName&quot;:&quot;'&quot;,&quot;glyphIndex&quot;:1,&quot;word&quot;:1}"
           id="path188" /><path
           d="m 281.9877,131.62272 -7.6152,0.13243 0.04,2.29893 4.82775,-0.0839 0.0492,4.48341 c -0.65145,0.55749 -1.66697,1.66747 -4.56937,1.71794 -4.31049,0.075 -7.55622,-3.08807 -7.63118,-7.39856 -0.075,-4.31049 3.05883,-7.58446 7.36932,-7.65942 2.93113,-0.051 4.50889,1.41634 5.81753,2.28469 l -0.0495,-2.84492 c -1.37161,-1.18345 -3.02459,-2.01706 -5.81203,-1.96859 -5.80479,0.10095 -10.06506,4.71679 -9.96911,10.23421 0.096,5.51742 4.51413,9.98235 10.31892,9.8814 3.36218,-0.0585 6.0077,-1.65672 7.36107,-3.17501 z"
           data-paper-data="{&quot;glyphName&quot;:&quot;G&quot;,&quot;glyphIndex&quot;:2,&quot;word&quot;:1}"
           id="path190" /><path
           d="m 299.66021,125.45224 c -5.66463,-1.27189 -10.89393,2.2081 -12.10286,7.5923 -1.20892,5.38421 2.03069,10.76573 7.69532,12.03762 5.66463,1.27189 10.89393,-2.2081 12.10286,-7.5923 1.20892,-5.38421 -2.03069,-10.76573 -7.69532,-12.03762 z m -0.55409,2.46776 c 4.20641,0.94447 6.61395,4.78417 5.66948,8.99058 -0.94447,4.20641 -4.76242,6.64829 -8.96883,5.70382 -4.20641,-0.94447 -6.61395,-4.78417 -5.66948,-8.99058 0.94447,-4.20641 4.76242,-6.64829 8.96883,-5.70382 z"
           data-paper-data="{&quot;glyphName&quot;:&quot;O&quot;,&quot;glyphIndex&quot;:3,&quot;word&quot;:1}"
           id="path192" /><path
           d="m 315.29636,144.11262 5.10146,-11.8848 -2.16567,-0.9296 -5.10146,11.8848 z m -2.19382,2.12344 c -1.03002,-0.44213 -2.20018,0.0252 -2.64231,1.05519 -0.43079,1.00361 0.0252,2.20018 1.05519,2.64231 1.00361,0.43079 2.21152,-0.0516 2.64231,-1.05519 0.44213,-1.03002 -0.0516,-2.21152 -1.05519,-2.64231 z"
           data-paper-data="{&quot;glyphName&quot;:&quot;!&quot;,&quot;glyphIndex&quot;:4,&quot;lastGlyphOfWord&quot;:true,&quot;word&quot;:1}"
           id="path194" /></g><g
         data-paper-data="{&quot;isSecondaryText&quot;:true}"
         fill-rule="nonzero"
         id="g244"><path
           d="m 205.10701,306.68921 c -0.70634,-0.68987 -1.79308,-0.80026 -2.40758,-0.17108 -0.43479,0.44517 -0.59324,0.93989 -0.27269,1.75165 l 0.369,0.94027 c 0.13901,0.34453 0.30315,0.82957 0.0133,1.12635 -0.34203,0.3502 -0.89514,0.21591 -1.29283,-0.1725 -0.50453,-0.49276 -0.70511,-1.08299 -0.80506,-1.59812 l -0.53914,0.55201 c 0.0878,0.48008 0.30578,1.05249 0.76282,1.49888 0.73008,0.71306 1.81158,0.87631 2.44347,0.22933 0.48696,-0.49859 0.46307,-1.03223 0.16047,-1.81487 l -0.3026,-0.78264 c -0.18153,-0.46724 -0.31516,-0.8529 -0.002,-1.17342 0.4174,-0.42737 1.06009,-0.15919 1.42216,0.19444 0.36801,0.35943 0.52055,0.85634 0.58379,1.24283 l 0.53914,-0.55201 c -0.0866,-0.37448 -0.20321,-0.81315 -0.67213,-1.27113 z"
           data-paper-data="{&quot;glyphName&quot;:&quot;S&quot;,&quot;glyphIndex&quot;:0,&quot;firstGlyphOfWord&quot;:true,&quot;word&quot;:1}"
           id="path198" /><path
           d="m 207.44704,314.62742 -0.4333,1.3827 0.67597,0.58822 1.69005,-5.89829 -0.28166,-0.24509 -5.6082,2.4888 0.67597,0.58822 1.31582,-0.61474 z m 0.23136,-0.73354 -1.50217,-1.30715 2.24422,-1.04969 z"
           data-paper-data="{&quot;glyphName&quot;:&quot;A&quot;,&quot;glyphIndex&quot;:1,&quot;word&quot;:1}"
           id="path200" /><path
           d="m 213.54078,317.54014 c 0.58627,0.17483 1.09922,-0.1022 1.37545,-0.46543 0.54743,-0.71986 0.30144,-1.65742 -0.48447,-2.25507 l -1.76994,-1.34597 -3.28959,4.32578 c 0.34576,0.40886 0.93773,0.97369 1.48588,1.39054 1.06989,0.81361 2.20027,0.76638 2.76277,0.0267 0.48716,-0.64061 0.24928,-1.30099 -0.0801,-1.67655 z m -0.71147,-3.0531 1.03687,0.7885 c 0.55476,0.42187 0.74882,0.93427 0.39223,1.40317 -0.30636,0.40286 -0.89215,0.40559 -1.44691,-0.0163 l -1.03687,-0.7885 z m -1.55751,4.13155 c -0.24436,-0.18582 -0.67177,-0.54213 -0.94358,-0.84264 l 1.04463,-1.37368 1.05008,0.79854 c 0.6142,0.46707 0.95699,1.07173 0.59036,1.55384 -0.35156,0.4623 -1.08107,0.36617 -1.74149,-0.13606 z"
           data-paper-data="{&quot;glyphName&quot;:&quot;B&quot;,&quot;glyphIndex&quot;:2,&quot;word&quot;:1}"
           id="path202" /><path
           d="m 219.91082,318.52216 c -1.39908,-0.92276 -3.16669,-0.51822 -4.04377,0.8116 -0.87708,1.32982 -0.553,3.11394 0.84609,4.0367 1.39908,0.92276 3.16669,0.51822 4.04377,-0.8116 0.87708,-1.32982 0.553,-3.11394 -0.84609,-4.0367 z m -0.40199,0.6095 c 1.03892,0.68522 1.29609,1.96801 0.61088,3.00693 -0.68522,1.03892 -1.96565,1.30759 -3.00457,0.62237 -1.03892,-0.68522 -1.29609,-1.96801 -0.61088,-3.00693 0.68522,-1.03892 1.96565,-1.30759 3.00457,-0.62237 z"
           data-paper-data="{&quot;glyphName&quot;:&quot;O&quot;,&quot;glyphIndex&quot;:3,&quot;word&quot;:1}"
           id="path204" /><path
           d="m 224.24638,327.78562 0.99866,0.56005 -1.23412,-3.3461 c 0.09,0.06 0.16962,0.10464 0.23475,0.14116 0.83945,0.47076 1.99018,0.48826 2.49746,-0.41633 0.56005,-0.99866 -0.0382,-1.93345 -0.87043,-2.40016 l -1.85982,-1.04298 -2.71906,4.84857 0.6513,0.36525 1.14444,-2.04074 z m 0.0728,-5.52399 1.09997,0.61686 c 0.62235,0.34901 0.96253,0.9298 0.65816,1.47255 -0.2922,0.52104 -0.89861,0.61855 -1.62951,0.20866 -0.36907,-0.20697 -0.73144,-0.47678 -1.00116,-0.74218 z"
           data-paper-data="{&quot;glyphName&quot;:&quot;R&quot;,&quot;glyphIndex&quot;:4,&quot;word&quot;:1}"
           id="path206" /><path
           d="m 229.85383,325.25199 2.75367,1.33811 0.30824,-0.63431 -3.4253,-1.66447 -2.42962,4.99989 3.4253,1.66447 0.30824,-0.63431 -2.75367,-1.33811 0.78328,-1.6119 2.43278,1.18217 0.30824,-0.63431 -2.43278,-1.18217 z"
           data-paper-data="{&quot;glyphName&quot;:&quot;E&quot;,&quot;glyphIndex&quot;:5,&quot;word&quot;:1}"
           id="path208" /><path
           d="m 236.30013,327.33983 c -0.91027,-0.38242 -1.96166,-0.0862 -2.30231,0.72464 -0.24102,0.5737 -0.20681,1.09204 0.38934,1.72947 l 0.68839,0.73918 c 0.25578,0.26945 0.58651,0.66038 0.42582,1.04284 -0.1896,0.45131 -0.75339,0.52943 -1.26589,0.31412 -0.65019,-0.27316 -1.05343,-0.74855 -1.3355,-1.19103 l -0.29887,0.71139 c 0.2579,0.41433 0.67078,0.86677 1.25978,1.11422 0.94086,0.39528 2.00679,0.15014 2.35708,-0.68363 0.26995,-0.64254 0.0518,-1.13015 -0.51694,-1.74708 l -0.56876,-0.61692 c -0.34037,-0.36798 -0.60624,-0.67767 -0.4327,-1.09073 0.23138,-0.55075 0.92765,-0.53721 1.39426,-0.34118 0.47426,0.19925 0.79856,0.60547 0.99925,0.94177 l 0.29887,-0.71139 c -0.21798,-0.31656 -0.48752,-0.68179 -1.09181,-0.93566 z"
           data-paper-data="{&quot;glyphName&quot;:&quot;S&quot;,&quot;glyphIndex&quot;:6,&quot;lastGlyphOfWord&quot;:true,&quot;word&quot;:1}"
           id="path210" /><path
           d="m 244.28473,336.18836 c 1.27848,0.0253 2.42002,-0.79187 2.81055,-2.04326 0.47457,-1.52068 -0.33085,-3.14531 -1.93074,-3.64459 -1.59988,-0.49929 -3.18637,0.37888 -3.66094,1.89956 -0.47457,1.52068 0.33085,3.14531 1.93074,3.64459 0.62546,0.86444 1.63649,1.71884 2.51563,1.9932 l 0.22245,-0.71282 c -0.51481,-0.16066 -1.24555,-0.63207 -1.8877,-1.13668 z m -2.05246,-3.5609 c 0.37076,-1.18803 1.52674,-1.80074 2.71477,-1.42998 1.18803,0.37076 1.79034,1.53218 1.41959,2.72022 -0.37076,1.18803 -1.52674,1.80074 -2.71477,1.42998 -1.18803,-0.37076 -1.79034,-1.53218 -1.41959,-2.72022 z"
           data-paper-data="{&quot;glyphName&quot;:&quot;Q&quot;,&quot;glyphIndex&quot;:7,&quot;firstGlyphOfWord&quot;:true,&quot;word&quot;:2}"
           id="path212" /><path
           d="m 254.45067,333.07417 -0.72716,-0.16981 -0.76227,3.26414 c -0.25661,1.09882 -1.04956,1.35669 -1.8594,1.17609 -0.80984,-0.1806 -1.4028,-0.77916 -1.14619,-1.87798 l 0.76227,-3.26414 -0.72716,-0.16981 -0.76793,3.28838 c -0.33019,1.41392 0.43694,2.47065 1.70543,2.76687 1.26849,0.29623 2.4243,-0.31144 2.75449,-1.72536 z"
           data-paper-data="{&quot;glyphName&quot;:&quot;U&quot;,&quot;glyphIndex&quot;:8,&quot;word&quot;:2}"
           id="path214" /><path
           d="m 257.46997,334.3798 3.02093,0.4972 0.11453,-0.69588 -3.75774,-0.61846 -0.90277,5.48516 3.75774,0.61846 0.11453,-0.69588 -3.02093,-0.4972 0.29104,-1.76835 2.6689,0.43926 0.11453,-0.69588 -2.6689,-0.43926 z"
           data-paper-data="{&quot;glyphName&quot;:&quot;E&quot;,&quot;glyphIndex&quot;:9,&quot;lastGlyphOfWord&quot;:true,&quot;word&quot;:2}"
           id="path216" /><path
           d="m 267.90067,340.50238 2.97359,-5.36692 -0.89394,-0.0617 -2.19145,4.15677 -1.5747,-4.41674 -0.89394,-0.0617 2.20797,5.72459 z"
           data-paper-data="{&quot;glyphName&quot;:&quot;V&quot;,&quot;glyphIndex&quot;:10,&quot;firstGlyphOfWord&quot;:true,&quot;word&quot;:3}"
           id="path218" /><path
           d="m 275.14667,339.42118 0.56601,1.33388 0.89601,0.01 -2.53507,-5.58744 -0.37334,-0.004 -2.65849,5.52978 0.89601,0.01 0.60378,-1.32089 z m -0.29914,-0.7086 -1.99114,-0.0221 1.02901,-2.25378 z"
           data-paper-data="{&quot;glyphName&quot;:&quot;A&quot;,&quot;glyphIndex&quot;:11,&quot;word&quot;:3}"
           id="path220" /><path
           d="m 283.31115,340.45071 -0.31498,-5.55002 -0.74553,0.0423 0.22801,4.01755 -3.81481,-3.81399 -0.29821,0.0169 0.31498,5.55002 0.74553,-0.0423 -0.22519,-3.96785 3.81199,3.76429 z"
           data-paper-data="{&quot;glyphName&quot;:&quot;N&quot;,&quot;glyphIndex&quot;:12,&quot;lastGlyphOfWord&quot;:true,&quot;word&quot;:3}"
           id="path222" /><path
           d="m 288.7577,334.27168 0.87924,5.3629 c 0.68333,0.0141 1.29445,-0.002 2.04772,-0.12553 1.84222,-0.30203 2.68351,-1.73475 2.41773,-3.3559 -0.28995,-1.76853 -1.90588,-2.44526 -3.60072,-2.1674 z m 0.85099,0.57513 1.00708,-0.16511 c 1.22815,-0.20135 2.51321,0.25217 2.73336,1.59494 0.20135,1.22815 -0.45217,2.31899 -1.77856,2.53645 -0.39301,0.0644 -0.87326,0.10954 -1.29069,0.12753 z"
           data-paper-data="{&quot;glyphName&quot;:&quot;D&quot;,&quot;glyphIndex&quot;:13,&quot;firstGlyphOfWord&quot;:true,&quot;word&quot;:4}"
           id="path224" /><path
           d="m 297.47325,333.38305 0.91477,-0.20542 -0.15452,-0.6881 -2.55813,0.57446 0.15452,0.6881 0.91477,-0.20542 0.90896,4.04767 -0.91477,0.20542 0.15452,0.6881 2.55813,-0.57446 -0.15452,-0.6881 -0.91477,0.20542 z"
           data-paper-data="{&quot;glyphName&quot;:&quot;I&quot;,&quot;glyphIndex&quot;:14,&quot;word&quot;:4}"
           id="path226" /><path
           d="m 305.49911,336.26617 1.09976,-0.31859 -3.25007,-1.4685 c 0.10591,-0.022 0.19357,-0.0474 0.26529,-0.0682 0.92444,-0.2678 1.74432,-1.07543 1.45573,-2.07159 -0.31859,-1.09976 -1.40441,-1.3294 -2.32088,-1.06391 l -2.0481,0.59332 1.5468,5.33942 0.71723,-0.20778 -0.65104,-2.24734 z m -3.88479,-3.92787 1.21133,-0.35092 c 0.68536,-0.19854 1.33786,-0.0334 1.51101,0.56429 0.16622,0.57379 -0.1898,1.07428 -0.99469,1.30745 -0.40643,0.11774 -0.85293,0.18662 -1.23129,0.19257 z"
           data-paper-data="{&quot;glyphName&quot;:&quot;R&quot;,&quot;glyphIndex&quot;:15,&quot;word&quot;:4}"
           id="path228" /><path
           d="m 307.6284,330.49305 2.88556,-1.02313 -0.23568,-0.66469 -3.58935,1.27267 1.85771,5.23936 3.58935,-1.27267 -0.23568,-0.66469 -2.88556,1.02313 -0.5989,-1.68911 2.5493,-0.9039 -0.23568,-0.66469 -2.5493,0.9039 z"
           data-paper-data="{&quot;glyphName&quot;:&quot;E&quot;,&quot;glyphIndex&quot;:16,&quot;word&quot;:4}"
           id="path230" /><path
           d="m 314.60336,326.89835 c -1.54275,0.65486 -2.18378,2.35108 -1.56135,3.81746 0.62244,1.46638 2.2879,2.18356 3.83065,1.52871 0.74083,-0.31446 1.21868,-0.82375 1.44148,-1.29689 l -0.29177,-0.68736 c -0.24225,0.42731 -0.65598,0.9815 -1.435,1.31217 -1.14561,0.48628 -2.35645,-0.009 -2.84272,-1.15487 -0.48628,-1.14561 -0.002,-2.36084 1.14399,-2.84712 0.77901,-0.33067 1.36001,-0.10859 1.80419,-0.0177 l -0.32094,-0.7561 c -0.49512,-0.1684 -1.0277,-0.21274 -1.76853,0.10172 z"
           data-paper-data="{&quot;glyphName&quot;:&quot;C&quot;,&quot;glyphIndex&quot;:17,&quot;word&quot;:4}"
           id="path232" /><path
           d="m 322.01119,324.30736 -0.31424,-0.63136 -4.10012,2.04074 0.31424,0.63136 1.71581,-0.85401 2.15165,4.32295 0.6685,-0.33273 -2.15165,-4.32295 z"
           data-paper-data="{&quot;glyphName&quot;:&quot;T&quot;,&quot;glyphIndex&quot;:18,&quot;word&quot;:4}"
           id="path234" /><path
           d="m 325.36576,321.45198 c -1.44818,0.84363 -1.87086,2.60699 -1.069,3.98347 0.80186,1.37648 2.54427,1.87858 3.99245,1.03496 1.44818,-0.84363 1.87086,-2.60699 1.069,-3.98347 -0.80186,-1.37648 -2.54427,-1.87858 -3.99245,-1.03496 z m 0.36752,0.63088 c 1.07538,-0.62645 2.33891,-0.28708 2.96537,0.7883 0.62645,1.07538 0.29843,2.3419 -0.77695,2.96836 -1.07538,0.62645 -2.33891,0.28708 -2.96537,-0.7883 -0.62645,-1.07538 -0.29843,-2.3419 0.77695,-2.96836 z"
           data-paper-data="{&quot;glyphName&quot;:&quot;O&quot;,&quot;glyphIndex&quot;:19,&quot;lastGlyphOfWord&quot;:true,&quot;word&quot;:4}"
           id="path236" /><path
           d="m 337.50545,318.64762 1.25082,0.73147 0.72446,-0.52735 -5.37112,-2.96599 -0.30186,0.21973 1.17194,6.02268 0.72446,-0.52735 -0.305,-1.41996 z m -0.66324,-0.38951 -1.60991,1.17189 -0.52136,-2.4221 z"
           data-paper-data="{&quot;glyphName&quot;:&quot;A&quot;,&quot;glyphIndex&quot;:20,&quot;firstGlyphOfWord&quot;:true,&quot;lastGlyphOfWord&quot;:true,&quot;word&quot;:5}"
           id="path238" /><path
           d="m 343.48363,309.13397 -0.46669,-0.52874 -3.43368,3.03074 0.46669,0.52874 1.43692,-1.2683 3.19546,3.6203 0.55984,-0.49414 -3.19546,-3.6203 z"
           data-paper-data="{&quot;glyphName&quot;:&quot;T&quot;,&quot;glyphIndex&quot;:21,&quot;firstGlyphOfWord&quot;:true,&quot;word&quot;:6}"
           id="path240" /><path
           d="m 346.08661,306.63011 0.6679,-0.65797 -0.49493,-0.5024 -1.86775,1.83998 0.49493,0.5024 0.6679,-0.65797 2.91136,2.9553 -0.6679,0.65797 0.49493,0.5024 1.86775,-1.83998 -0.49493,-0.5024 -0.6679,0.65797 z"
           data-paper-data="{&quot;glyphName&quot;:&quot;I&quot;,&quot;glyphIndex&quot;:22,&quot;lastGlyphOfWord&quot;:true,&quot;word&quot;:6}"
           id="path242" /></g><g
         data-paper-data="{&quot;isContainerElementsWrapper&quot;:true}"
         fill-rule="evenodd"
         id="g248"><path
           d="m 183.78305,143.78305 c -11.90226,11.90224 -21.11727,25.57007 -27.64502,41.00349 C 149.37934,200.76613 146,217.50382 146,234.9996 c 0,17.49552 3.37934,34.23304 10.13803,50.21257 6.52795,15.43379 15.74295,29.10199 27.64502,41.00457 11.90387,11.90324 25.57173,21.11779 41.00359,27.64364 15.98038,6.75974 32.71803,10.13961 50.21296,10.13961 17.49552,0 34.23304,-3.37987 50.21257,-10.13961 15.4351,-6.52782 29.1033,-15.74237 41.00457,-27.64364 11.90193,-11.90324 21.11648,-25.57143 27.64364,-41.00457 6.75974,-15.97953 10.13961,-32.71705 10.13961,-50.21257 0,-17.49559 -3.37987,-34.23327 -10.13961,-50.21306 -6.52782,-15.43403 -15.74237,-29.10186 -27.64364,-41.00349 C 354.31415,131.88072 340.64596,122.66572 325.21217,116.13803 309.23264,109.37934 292.49512,106 274.9996,106 c -17.49565,0 -34.23334,3.37934 -50.21306,10.13803 -15.43336,6.52775 -29.10119,15.74276 -41.00349,27.64502 z m -35.23842,91.21656 c 0,-17.15164 3.31239,-33.55887 9.93717,-49.2217 6.39889,-15.12875 15.43242,-28.52725 27.1006,-40.19551 11.66838,-11.66824 25.06688,-20.70178 40.19551,-27.1006 15.6627,-6.62478 32.06993,-9.93717 49.2217,-9.93717 17.15223,0 33.55956,3.31239 49.222,9.93717 15.12915,6.39895 28.52743,15.43248 40.19482,27.1006 11.66805,11.66772 20.70178,25.06622 27.10119,40.19551 6.62478,15.66244 9.93717,32.06967 9.93717,49.2217 0,17.15157 -3.31239,33.5589 -9.93717,49.222 -6.3981,15.12719 -15.43183,28.52546 -27.10119,40.19482 -11.66739,11.66805 -25.06567,20.70178 -40.19482,27.10119 -15.66309,6.62478 -32.07043,9.93717 -49.222,9.93717 -17.15046,0 -33.55773,-3.31239 -49.2218,-9.93717 -15.12773,-6.3981 -28.5262,-15.43183 -40.19541,-27.10119 -11.66831,-11.66805 -20.70184,-25.06632 -27.1006,-40.19482 -6.62478,-15.66375 -9.93717,-32.07108 -9.93717,-49.222 z"
           data-paper-data="{&quot;isBaseLogoContainer&quot;:true}"
           id="path246" /></g></g></g></svg>
